<svg xmlns="http://www.w3.org/2000/svg" viewBox="0 0 52.63 98.04"><defs><style>text-color{fill:#fff;}.cls-2{fill:#00a67e;}.cls-3{fill:#1854a1;}.cls-4{fill:#e53c12;}.cls-5{fill:#ffd900;}</style></defs><title>logo1</title><g id="Layer_2" data-name="Layer 2"><g id="Layer_1-2" data-name="Layer 1"><path class="text-color" d="M52.41,92.2q0-2.21-1.95-2.21H47.53v1.76H50.3c.2,0,.3.12.3.35V97l1.81-.36ZM40.59,90.27c0-.19,0-.28-.16-.28H37.87v1.76h.68l-.27,1.74A2,2,0,0,1,37.09,95l-.18.09-.07,0V95l.49-.8-.76-4.08c0-.12-.08-.17-.18-.17H34.28v1.74h.64l.11.08.86,3.68,0,0-1.48.56L34.06,98l3-1.15a5.31,5.31,0,0,0,2.06-1.35,4.28,4.28,0,0,0,1-2.17ZM27.22,91.85Q27.22,90,25.6,90H24.28v1.76h.92c.15,0,.22.08.22.25v3.14H24.1l-.33,1.77h3.31l.15-.17ZM17,91.85Q17,90,15.36,90H14v1.76H15q.22,0,.22.25v3.14H13.85l-.33,1.77h3.3l.15-.17ZM3.05,93.15H1.24V97l1.81-.36Zm3.68-1q0-2.18-2-2.18H1.11v1.76H4.67q.24,0,.24.27v5l1.83-.36Z"/><path class="text-color" d="M48.28,55H46.5V61.8l1.78-.61Zm4.34-2.53c0-.13,0-.19-.15-.19H46.23v1.76h4.25l-.33,2.2a1.14,1.14,0,0,1-.74.95l-.66.28.65,1.76.79-.36a2.83,2.83,0,0,0,1.66-2.21Zm-13.94,2q0-2.21-1.95-2.21H33.8v1.76h2.77c.2,0,.3.12.3.35v4.92L38.68,59ZM26.34,53.4q0-1.1-1-1.1H23.89v1.76h.54l.11.14v2.42l1.8-.36Zm-9.86,0q0-1.1-1-1.1H14v1.76h.54l.11.14v2.42l1.8-.36Zm-9.9,1.14q0-2.24-2-2.24H.68v1.76h1v.1l-.56.46v2.84H.36L0,59.21H2.81l.13-.15v-5H4.58c.13,0,.19.09.19.26v5L6.58,59Z"/><path class="text-color" d="M47.19,68.08H44.62v5.61l2.57-.52Zm5.23-1.43q0-3.16-2.88-3.17H44.43V66h5.06c.23,0,.34.13.34.39v7.27l2.59-.52ZM39.81,70.17q-.1.89-1.18.89h-.31q-1,0-1.08-.83L36.82,66h3.44Zm3.24-6.31q0-.37-.22-.37h-9V66h1.39c.12,0,.13,0,0,.14l-.84.71.33,3.43a4.13,4.13,0,0,0,.91,2.6,3.49,3.49,0,0,0,2.43.7h.42q3.39,0,3.8-3.44ZM32.48,66.63q0-3.15-2.64-3.15H24.92V66h1.23l.06.07-.06.11-.58.39a1.25,1.25,0,0,0-.54,1.1v1.84q0,.22.15.22h3l.41-2.07h-1.1v-.74a2.13,2.13,0,0,1,.1-.85c.06-.11.22-.17.46-.17h1.43c.22,0,.36.05.41.15a1.23,1.23,0,0,1,.08.54V71H24.84l-.56,2.5h8c.15,0,.23-.09.23-.26Zm-9.16-2q0-1.17-1.07-1.17H19.75V66h.85q.15,0,.15.22v7.43l2.57-.52Zm-4.88,2q0-3.21-2.76-3.21H11.51V66h3.94q.42,0,.42.51v7.15l2.56-.52ZM10.3,63.83c0-.23,0-.35-.24-.35H5.72L5.22,66H7.4l-.54,4.08a1,1,0,0,1-.35.72,1.72,1.72,0,0,1-.94.19H5.46a1.52,1.52,0,0,1-.72-.13.86.86,0,0,1-.35-.73l-.46-6.41c0-.18-.1-.27-.25-.27H.8V66h.75l.37,4.22a4.15,4.15,0,0,0,.89,2.64,3.6,3.6,0,0,0,2.49.68h.22a3.51,3.51,0,0,0,3.89-3.36Z"/><path class="text-color" d="M52.38,78.14q0-1.16-1.07-1.16H48.81v2.55h.85c.1,0,.15.07.15.22v7.43l2.57-.52ZM41.18,81.57H38.61v5.61l2.57-.52Zm5.23-1.43q0-3.17-2.88-3.17H38.42v2.55h5.06c.23,0,.34.13.34.39v7.26l2.59-.52Zm-10.61-.45q0-2.71-2.3-2.71H31.62v2.55h1.31c.21,0,.31.12.31.37v4.55H31.37L30.9,87H35.6q.21,0,.21-.24Zm-6.94-1.55Q28.86,77,27.8,77H25.29v2.55h.85c.1,0,.15.07.15.22v7.43l2.57-.52Zm-6,2Q22.9,77,20.26,77H15.34V79.5h1.23l.06.07-.06.11-.58.39a1.25,1.25,0,0,0-.54,1.1V83c0,.15.05.22.15.22h3l.4-2.06h-1.1v-.74a2.15,2.15,0,0,1,.09-.85c.06-.11.22-.17.46-.17h1.43c.22,0,.36.05.41.15a1.23,1.23,0,0,1,.08.55v4.39H15.26L14.7,87h8c.15,0,.23-.09.23-.26ZM12.84,77.39l-.05-.27L12.6,77H9.28v2.51H10l-.51,2.73a2.92,2.92,0,0,1-.94,1.94,3,3,0,0,1-1.8.43H6.5a1.89,1.89,0,0,1-1.3-.39,2.48,2.48,0,0,1-.61-1.37l.08,0,.7.65Q7.68,83.06,8,80.12l.35-2.83c0-.21,0-.32-.22-.32H5.11v2.51h.77l-.06.72A1.79,1.79,0,0,1,4.61,81.9c-.09,0-.14,0-.15-.2l-.29-3.06a9.53,9.53,0,0,1-.06-1.08v-.31c0-.18-.08-.27-.24-.27H.94v2.51h.81l.42,3.28A6.2,6.2,0,0,0,3.4,86.2a4.14,4.14,0,0,0,3.08.94h.13a5.36,5.36,0,0,0,3.6-1.06A6,6,0,0,0,11.9,82.5Z"/><path class="cls-2" d="M37.5,5.11c3.38.74,3.88-.52.49-2.43A20.75,20.75,0,0,0,9.8,10.44c-1.93,3.37-.66,3.9,2.24,1.31A29,29,0,0,1,37.5,5.11"/><path class="cls-3" d="M41.63,18.11c3.86.46,6.83.07,6.5-1.54s-3.6-4.41-7.37-5.37a31.33,31.33,0,0,0-7.76-1,30.58,30.58,0,0,0-21.23,8.42C9,21.34,7.43,24.73,7.61,25.5s2.75-.74,6.19-2.55A46.74,46.74,0,0,1,30.33,18.1a49.92,49.92,0,0,1,11.3,0"/><path class="cls-4" d="M16.33,28.38c-3.67,1.27-5.92,3.73-5.19,4.72s3.4,1.12,5.88.62c1.47-.29,3-.53,4.52-.7a48.6,48.6,0,0,1,14.17.44c3.82.72,8.21.56,9.53-1.5s-1-5.09-4.82-5.72A49.06,49.06,0,0,0,27.2,26a50,50,0,0,0-10.87,2.41"/><path class="cls-5" d="M15.9,36.44c-.78.11,1,2.38,4.64,3.74a20.82,20.82,0,0,0,12.68.59c2.92-.79,2.11-3.34-1.71-4.06a48.54,48.54,0,0,0-14.2-.45l-1.41.18"/></g></g></svg>