<svg class="logo2" xmlns="http://www.w3.org/2000/svg" viewBox="0 0 64.34 98.04"><g id="Layer_2" data-name="Layer 2"><g id="Layer_1-2" data-name="Layer 1"><path class="text-color" d="M63.82,94.71a1.42,1.42,0,0,0-.39-1.08,1.48,1.48,0,0,0-1.07-.38,2.7,2.7,0,0,0-1.33.3l0,.12.14.25.11,0a1.67,1.67,0,0,1,.91-.24.91.91,0,0,1,1,1v2.77l.13.13h.37l.13-.14Zm-3.6-1.25-.1-.14h-.39l-.15.12-.15,2.05a2.36,2.36,0,0,1-.5,1.47,1.05,1.05,0,0,1-.82.36,1,1,0,0,1-1-.84,1.86,1.86,0,0,0,1.35-2v-1l-.14-.15H58l-.13.14V94.7q0,1.17-.79,1.48a3.6,3.6,0,0,1-.11-.68l-.14-2.06-.15-.11h-.4l-.1.14.18,2.1q.18,2.17,1.78,2.17a1.68,1.68,0,0,0,1.28-.57,2.57,2.57,0,0,0,.64-1.6Zm-5,0-.12-.14h-.37l-.13.15v4l.13.13h.37l.12-.13Zm-1.64,1.26q0-1.48-1.68-1.48a4.07,4.07,0,0,0-1.77.39l-.05.15.1.2.12,0,.34-.12,0,2.62a.75.75,0,0,1-.73.83l-.08.16.06.2.09.06a1.2,1.2,0,0,0,1.26-1.25l0-2.74a1.66,1.66,0,0,1,.56-.1q1.14,0,1.16,1.05l.08,2.79.12.13h.37l.13-.14Zm-8.77.34-.12-.13h-.38l-.14.13v2.43l.13.13h.38l.13-.14Zm2.47-.32a1.41,1.41,0,0,0-.46-1.14,1.75,1.75,0,0,0-1.17-.37,2.92,2.92,0,0,0-1.64.45l0,.12.15.23.13,0a2.08,2.08,0,0,1,1.23-.35q1.17,0,1.17,1.08v2.73l.13.13h.37l.13-.14Zm-4.75,1.34a2.28,2.28,0,0,1-.23.66,1.08,1.08,0,0,1-.36.4.9.9,0,0,1-.49.14.73.73,0,0,1-.7-.44,3.6,3.6,0,0,1-.24-1.25l-.1-1.75a2.33,2.33,0,0,1,1-.21q1.24,0,1.24,1.54a4.66,4.66,0,0,1-.08.91m-1.06-2.86a4.22,4.22,0,0,0-1.84.35l-.07.1.06.1.19.15.09,1.63a3.28,3.28,0,0,0,.39,1.55,1.28,1.28,0,0,0,1.16.58A1.56,1.56,0,0,0,42.75,97a3,3,0,0,0,.53-1.85q0-1.94-1.79-1.94m-3.11.52A1.79,1.79,0,0,0,37,93.23a3,3,0,0,0-1.47.3l0,.17.22.18V95a1.25,1.25,0,0,0,.05.37.77.77,0,0,0,.16.29.7.7,0,0,0,.26.18.92.92,0,0,0,.36.07,1,1,0,0,0,.55-.15l0-.12-.06-.18-.12,0-.26.06q-.36,0-.36-.43V93.79a1.26,1.26,0,0,1,.61-.13q1.31,0,1.31,1.79a2.07,2.07,0,0,1-.4,1.38,1.22,1.22,0,0,1-1,.43,1.63,1.63,0,0,1-.95-.3l-.15.06-.09.2.05.15a2.49,2.49,0,0,0,1.3.32,1.67,1.67,0,0,0,1.3-.59,2.81,2.81,0,0,0,0-3.35m-3.76-.29-.12-.14h-.37l-.13.15v4l.13.13h.37l.13-.13ZM33,94.71a1.42,1.42,0,0,0-.39-1.08,1.48,1.48,0,0,0-1.07-.38,2.69,2.69,0,0,0-1.32.3l0,.12.14.25.11,0a1.67,1.67,0,0,1,.91-.24.91.91,0,0,1,1,1v2.77l.13.13h.37L33,97.5Zm-3.81-.9a1.11,1.11,0,0,0-1-.51,1.1,1.1,0,0,0-.95.48l0,.13.15.09.16,0a.61.61,0,0,1,.54-.25.57.57,0,0,1,.49.29,2,2,0,0,1,.24,1.1,3.67,3.67,0,0,1-.27,1.49,1,1,0,0,1-.88.69q-.88,0-1-1.65l-.13-2.19-.16-.13h-.37c-.06,0-.09.06-.09.18l.13,2.25a2.5,2.5,0,0,0,.43,1.41,1.31,1.31,0,0,0,1.1.54A1.53,1.53,0,0,0,29,96.91a3.29,3.29,0,0,0,.45-1.79,2.34,2.34,0,0,0-.32-1.32m-8.44,1.26-.12-.13h-.38l-.14.13v2.43l.13.13h.38l.13-.14Zm2.47-.32a1.41,1.41,0,0,0-.46-1.14,1.75,1.75,0,0,0-1.17-.37,2.92,2.92,0,0,0-1.64.45l0,.12.15.23.13,0a2.08,2.08,0,0,1,1.23-.35q1.17,0,1.17,1.08v2.73l.13.13h.37l.13-.14ZM19,93.46l-.1-.13h-.38l-.14.1-.11,2.17a1.93,1.93,0,0,1-.24,1,1.4,1.4,0,0,1-.69.52l-.84-3.6-.18-.15H16c-.1,0-.14.05-.12.15l.93,3.79-1,.35-.08.13.08.23L16,98l1.44-.52a2.18,2.18,0,0,0,1.52-2.09Zm-4.11,0-.12-.14h-.37l-.13.15v2.19l.12.07.38-.17.12-.18Zm-1.65,1.25a1.41,1.41,0,0,0-.39-1.08,1.48,1.48,0,0,0-1.07-.38,2.7,2.7,0,0,0-1.32.3l0,.12.14.25.11,0a1.67,1.67,0,0,1,.91-.24.91.91,0,0,1,1,1v2.77l.13.13h.37l.13-.14ZM9.72,93.46l-.12-.14H9.24l-.13.15v4l.12.13H9.6l.13-.13ZM8.08,94.59a1.2,1.2,0,0,0-.43-1,1.29,1.29,0,0,0-1-.29l-.09.09,0,.24,0,.08.08,0a.66.66,0,0,1,.52.18.85.85,0,0,1,.24.66v2.6H6.39l-.1.08v.27l.1.09H8l.1-.1ZM5.59,93.46l-.12-.14H5.1L5,93.47v2.19l.12.07.38-.17.12-.18ZM3.94,94.73q0-1.48-1.68-1.48a4.07,4.07,0,0,0-1.77.39l-.05.15.1.2.12,0L1,93.9,1,96.52a.75.75,0,0,1-.73.83l-.08.16.06.2.09.06a1.2,1.2,0,0,0,1.26-1.25l0-2.74a1.66,1.66,0,0,1,.56-.1q1.13,0,1.16,1.05l.08,2.79.12.13h.37L4,97.5Z"/><path class="text-color" d="M43.41,62.39c0,.18-.16.37-.25.56h-1V61.83H43c.34,0,.45.33.45.56m.7,1.66a1.51,1.51,0,0,0-.29-.71,1.81,1.81,0,0,0,.35-.92c0-.27-.1-1.42-.92-1.42H41.49v4.54h.72V63.77h.94a.66.66,0,0,1,.22.45,4.94,4.94,0,0,0,.08,1.12s0,0-.06.2h.86v-.37c0-.15-.11,0-.11-.19Z"/><path class="text-color" d="M36.09,63.36c0,.44-.22,1.54-.85,1.54s-.85-1.25-.85-1.57.12-1.57.85-1.57.85,1.4.85,1.6m.7,0c0-.67-.2-2.43-1.55-2.43s-1.55,1.61-1.55,2.4c0,.63.1,2.4,1.55,2.4,1.3,0,1.55-1.62,1.55-2.37"/><path class="text-color" d="M20.08,63.53h-.46a3.75,3.75,0,0,1,.26-.88,6.06,6.06,0,0,1,.2.88m1.29,2L20.25,61h-.74l-1.18,4.54h.74q.19-.64.35-1.24h.9a5.63,5.63,0,0,0,.3,1.24Z"/><path class="text-color" d="M46.57,63.53h-.46a3.75,3.75,0,0,1,.26-.88,6.06,6.06,0,0,1,.2.88m1.29,2L46.75,61H46l-1.18,4.54h.74q.19-.64.35-1.24h.9a5.63,5.63,0,0,0,.3,1.24Z"/><path class="text-color" d="M50,63.53h-.46a3.75,3.75,0,0,1,.26-.88,6.06,6.06,0,0,1,.2.88m1.29,2L50.12,61h-.74L48.2,65.55h.74q.19-.64.35-1.24h.9a5.63,5.63,0,0,0,.3,1.24Z"/><path class="text-color" d="M56.36,63.53h-.46a3.75,3.75,0,0,1,.26-.88,6.06,6.06,0,0,1,.2.88m1.29,2L56.53,61H55.8l-1.18,4.54h.74q.19-.64.35-1.24h.9a5.63,5.63,0,0,0,.3,1.24Z"/><path class="text-color" d="M62.58,63.53h-.46a3.75,3.75,0,0,1,.26-.88,6.06,6.06,0,0,1,.2.88m1.29,2L62.75,61H62l-1.18,4.54h.74q.19-.64.35-1.24h.9a5.63,5.63,0,0,0,.3,1.24Z"/><path class="text-color" d="M18,62.42a1,1,0,0,1-.19.53h-.86V61.83h.66c.27,0,.39.48.39.59m.76,0c0-.11-.12-1.42-.86-1.42H16.17v4.54h.77V63.77H18c.58,0,.74-1.16.74-1.36"/><rect class="text-color" x="26.66" y="5.75" width="0.74" height="7.26"/><rect class="text-color" x="27.77" y="5.75" width="0.74" height="7.26"/><rect class="text-color" x="28.89" y="5.75" width="0.69" height="7.26"/><rect class="text-color" x="30" y="5.75" width="0.69" height="7.26"/><rect class="text-color" x="31.06" y="5.75" width="0.69" height="7.26"/><rect class="text-color" x="32.17" y="5.75" width="0.69" height="7.26"/><rect class="text-color" x="33.22" y="5.75" width="0.74" height="7.26"/><rect class="text-color" x="34.34" y="5.75" width="0.75" height="7.26"/><rect class="text-color" x="35.45" y="5.75" width="0.74" height="7.26"/><rect class="text-color" x="36.57" y="5.75" width="0.74" height="7.26"/><rect class="text-color" x="42.08" y="15.92" width="0.69" height="3.53"/><rect class="text-color" x="43.31" y="16.34" width="0.69" height="2.47"/><polygon class="text-color" points="18.89 18.7 21.7 21.04 15.63 21.04 18.89 18.7"/><polygon class="text-color" points="23.79 21.84 27.29 21.84 27.29 29.22 23.44 29.22 23.44 27.28 25.3 27.28 25.3 23.86 23.79 23.86 23.79 21.84"/><polygon class="text-color" points="28.3 21.84 31.8 21.84 31.8 29.22 28.01 29.22 28.01 27.28 29.87 27.28 29.87 23.86 28.3 23.86 28.3 21.84"/><path class="text-color" d="M33.4,21.84h2.86v5.49H38V23.86a4.75,4.75,0,0,0-.86,0v-2h2.8v7.44H33.28V27.34h1V23.86a4.78,4.78,0,0,0-.86,0Z"/><polygon class="text-color" points="40.49 21.84 47.45 21.84 47.45 29.34 45.53 29.34 45.53 23.86 40.49 23.86 40.49 21.84"/><polygon class="text-color" points="15.76 21.96 22.25 21.96 22.25 29.34 20.33 29.34 20.33 23.98 15.76 23.98 15.76 21.96"/><rect class="text-color" x="15.64" y="24.8" width="1.98" height="4.54"/><path class="text-color" d="M22.91,29.94h.88c.1.13,0,.33,0,.51h3.62a4.62,4.62,0,0,1,0-.5h.95a1.12,1.12,0,0,1,0,.5h7.09c0-.06,0-.24,0-.5h.92a2.55,2.55,0,0,0,.17.53H40c-.06-.21-.12-.38-.18-.53h1c.19.48.3,1,.48,1.46H22.44c.17-.5.29-1,.48-1.46"/><path class="text-color" d="M23.44,32.31h.74v.9a3.52,3.52,0,0,0-.74,0Z"/><path class="text-color" d="M24.55,32.31h.69V33h-.69Z"/><path class="text-color" d="M25.66,32.31h.74v.33a4.17,4.17,0,0,1-.74.18Z"/><path class="text-color" d="M26.78,32.32h.46c-.12.16-.31.16-.46.22Z"/><path class="text-color" d="M28.56,32.31v.35c0-.07-.22-.19,0-.35"/><polygon class="text-color" points="28.94 32.31 29.68 32.31 29.68 35.56 28.94 33.76 28.94 32.31"/><path class="text-color" d="M30.05,32.31h.68v6a12.14,12.14,0,0,1-.68-1.8Z"/><rect class="text-color" x="31.11" y="32.31" width="0.75" height="9.27"/><path class="text-color" d="M32.23,32.31H33v5.93c0,.15-.29.57-.29.72s.29.39.29.54v2.08h-.75Z"/><path class="text-color" d="M33.35,32.31H34v3.27c0,.15-.47,1.14-.68,1.69Z"/><path class="text-color" d="M34.48,32.31h.67v.49c0,.15-.67,2-.67,1.56Z"/><path class="text-color" d="M36.68,32.31h.68v.4l-.68-.18Z"/><path class="text-color" d="M37.74,32.31h.74V33c-.26-.05-.5-.11-.74-.18Z"/><path class="text-color" d="M38.85,32.31h.74v.87a4,4,0,0,0-.74,0Z"/><path class="text-color" d="M40,32.31h.68v1a3.38,3.38,0,0,0-.68,0Z"/><path class="text-color" d="M27.42,33.91v7.68h-.64v-7.5a3.94,3.94,0,0,0,.64-.18"/><path class="text-color" d="M36.25,34.08v7.5a1,1,0,0,0-.28,0l2.93,4.92c-.85,0-2.31-.16-2.46-.16-2.28,0-4,.56-4.6,3.9-.57-3.32-2.37-4-4.54-4-.15,0-1.43.06-2.52.16l2.94-5h1.7a4,4,0,0,0,.26-.36v.4c-.88.73-1.51,2.26-2.16,3.23a6,6,0,0,1,4.31,1.82,6,6,0,0,1,4.37-1.76l-2-3.37h1.7c-.12-.15-.35-.42-.35-.57V35.76c0-.15.47-1.13.69-1.68"/><path class="text-color" d="M36.68,34.08l.69.18v7.32h-.69Z"/><path class="text-color" d="M26.41,34.2v7.38h-.74v-7.2c.25-.07.48-.13.74-.18"/><path class="text-color" d="M37.74,34.38c.26.05.5.11.74.18v7h-.74Z"/><path class="text-color" d="M25.24,34.56v7h-.69v-7h.69"/><path class="text-color" d="M38.85,34.68h.74v6.9h-.74Z"/><path class="text-color" d="M24.18,34.71v6.88h-.74V34.71a3.92,3.92,0,0,0,.74,0"/><path class="text-color" d="M40,34.83a3.08,3.08,0,0,0,.68,0v6.76H40Z"/><path class="text-color" d="M27.92,35.14c.19.55.66,1.49.66,1.63v3.36c0,.15-.66,1.34-.66,1Z"/><path class="text-color" d="M35.13,36.86v3.31a3.08,3.08,0,0,1-.68-1.39,8.15,8.15,0,0,1,.68-1.92"/><path class="text-color" d="M29,37.81a5.17,5.17,0,0,1,.37,1c0,.15-.37.79-.37.61Z"/><path class="text-color" d="M30.74,39.34v2.24h-.68V40.49a7.69,7.69,0,0,1,.68-1.15"/><path class="text-color" d="M33.35,40.11A7.57,7.57,0,0,1,34,41.27v.31h-.68Z"/><polygon class="text-color" points="1.04 44.8 25.48 44.8 24.47 46.23 1.04 46.23 1.04 44.8"/><polygon class="text-color" points="38.32 44.8 64.33 44.8 64.33 46.26 39.21 46.26 38.32 44.8"/><polygon class="text-color" points="1.04 51.07 6.83 51.07 6.83 59.04 5.03 59.04 5.03 53.33 1.04 53.33 1.04 51.07"/><path class="text-color" d="M8.14,51.07h2.74v8H8.14V56.81h1V53.32a5.8,5.8,0,0,0-1,0Z"/><path class="text-color" d="M12.06,51.07H14.8v8H12.06V56.81h1V53.32a5.8,5.8,0,0,0-1,0Z"/><path class="text-color" d="M17,51.07h1.76V56.8h1c.17-.22.57-.64.57-.79V51.07h1.75v5.75A21.77,21.77,0,0,1,20.66,59H16V56.81H17Z"/><polygon class="text-color" points="23.38 51.07 28.99 51.07 28.99 59.04 27.25 59.04 27.25 53.33 23.38 53.33 23.38 51.07"/><polygon class="text-color" points="35.21 51.07 41.18 51.07 41.18 59.04 39.5 59.04 39.5 53.31 36.99 53.31 36.99 59.04 33.99 59.04 33.99 56.81 35.21 56.81 35.21 51.07"/><rect class="text-color" x="42.49" y="51.07" width="1.74" height="3.47"/><rect class="text-color" x="45.48" y="51.07" width="1.74" height="3.47"/><polygon class="text-color" points="48.47 51.07 54.02 51.07 54.02 59.04 52.27 59.04 52.27 53.33 48.47 53.33 48.47 51.07"/><rect class="text-color" x="55.26" y="51.07" width="1.74" height="3.47"/><path class="text-color" d="M59.24,51.07H61V56.8h1c.17-.28.57-.7.58-.85V51.07h1.75V56.9c-.47.66-.94,1.43-1.42,2.14H58.31V56.81h.92Z"/><rect class="text-color" x="1.04" y="55.21" width="1.74" height="3.83"/><path class="text-color" d="M13.2,60.94c.82,0,1.32.82,1.43,1.71h-.74c-.07-.25-.27-.88-.68-.88-.78,0-.79,1.33-.79,1.57,0,.39.06,1.57.76,1.57.49,0,.76-.84.7-1.1.07-.07.2-.08.81-.07-.14.71-.53,2-1.52,2-1.33,0-1.52-1.77-1.52-2.4s.24-2.4,1.55-2.4"/><path class="text-color" d="M1.22,61h.86l.74,3,.74-3h.86v4.54h-.8V63.66c-.14.57-.31,1.22-.44,1.89H2.51c-.19-.67-.36-1.32-.52-1.95a12.72,12.72,0,0,0,0,1.94h-.8Z"/><path class="text-color" d="M4.79,61h.69v3.33c0,.48.52.57.68.57s.56-.13.56-.44V61h.75v3.56c0,.76-1,1.16-1.37,1.16a1.37,1.37,0,0,1-1.31-1.2Z"/><polygon class="text-color" points="7.73 61.01 8.53 61.01 9.76 63.78 9.76 61.01 10.46 61.01 10.46 65.55 9.72 65.55 8.49 62.89 8.49 65.55 7.73 65.55 7.73 61.01"/><rect class="text-color" x="10.77" y="61.01" width="0.69" height="4.54"/><rect class="text-color" x="15.02" y="61.01" width="0.77" height="4.54"/><polygon class="text-color" points="21.85 61.01 22.6 61.01 22.6 64.77 24.06 64.77 24.06 65.55 21.85 65.55 21.85 61.01"/><rect class="text-color" x="24.49" y="61.01" width="0.74" height="4.54"/><path class="text-color" d="M25.6,61h2.74v.81h-1v3.73H26.6v-3.7a5.83,5.83,0,0,0-1,0Z"/><polygon class="text-color" points="28.71 61.01 29.51 61.01 30.31 62.77 31.06 61.01 31.86 61.01 30.63 63.93 30.63 65.55 29.95 65.55 29.95 63.93 28.71 61.01"/><polygon class="text-color" points="37.03 61.01 39.42 61.01 39.42 61.82 37.79 61.82 37.79 62.81 39.24 62.81 39.24 63.65 37.81 63.65 37.81 65.55 37.03 65.55 37.03 61.01"/><polygon class="text-color" points="51.45 61.01 52.2 61.01 53.43 63.66 53.43 61.01 54.19 61.01 54.19 65.55 53.45 65.55 52.22 62.95 52.22 65.55 51.45 65.55 51.45 61.01"/><polygon class="text-color" points="57.9 61.01 58.64 61.01 59.87 63.78 59.87 61.01 60.58 61.01 60.58 65.55 59.84 65.55 58.67 62.95 58.67 65.55 57.9 65.55 57.9 61.01"/><rect class="text-color" x="1.04" y="68.28" width="63.29" height="1.34"/><path class="text-color" d="M30.61,0h2.33a8.59,8.59,0,0,1,8.71,8.62v2.77a17.47,17.47,0,0,1-.36,2.18c6.54,1.35,10.09,5.14,10.09,10.49,0,5.52-3.15,10.8-8.48,10.79H41.8v6.74H41V34.86h.51V33.39a2.09,2.09,0,0,0-.51,0V32.31h.74v1.06h1c4.48,0,7.13-4.81,7.13-8.19V23c0-4.91-6.42-7.94-10.37-8.08.29-1.21.64-3.18.64-3.32V8.42a7.17,7.17,0,0,0-7.25-6.94H30.61c-5.25,0-7.19,4.27-7.19,8.37a16.63,16.63,0,0,0,.7,5C17.8,15.7,13.75,18.51,13.75,24c0,4.7,2.59,9.29,7.13,9.29H22.3a6,6,0,0,0,0-1h.77v1h-.75v1.47a4.45,4.45,0,0,0,.75,0v6.82h-.74v-6.8H20.77c-4.5,0-8.35-4.74-8.48-9.67,0-.89.08-1.37,0-2.25-.4-4.37,6.32-9.2,10-9.32,0-.05,0,0,0-.12S22,10.4,22,9.88C22,5,24.43,0,30.61,0"/><path class="text-color" d="M33.64,19.86,32.25,18.8l-2.1,1.49,1-5.38h1.6ZM47.45,21V18.7L44.5,20.83V18.76l-3,2.07a14.66,14.66,0,0,1,0-2.13l-2.94,2.13c0-.1,0-.27,0-2.13-.38.3-.73.54-1.06.77L36,14.85l0-.06h.3v-1H27.25v1a.78.78,0,0,1,.46,0,38.91,38.91,0,0,1-1.5,4.4,3,3,0,0,0-.58-.47L22.37,21h6.09c-.48-.45-.94-.8-1.35-1.2l1.63-4.93h1.43L29.06,21h6.09c-.77-1.1-.72-2.59-1-3.75-.16-.69-.37-2.06-.37-2.21s0-.13,0-.18H35l1.69,5.17-1.29,1Z"/><path class="text-color" d="M61.3,78.11c0-.43,0-.86,0-1.29a1.2,1.2,0,0,0-.06-.31q-.06-.22-.14-.44L61,75.81c-.1-.15-.21-.29-.3-.45a1.46,1.46,0,0,0-.64-.58c-.14-.07-.28-.15-.42-.21l-.44-.16-.33-.13a.69.69,0,0,0-.57,0,1.55,1.55,0,0,1-.58.15,1.05,1.05,0,0,0-.38.13,5.63,5.63,0,0,0-.6.32c-.3.19-.59.41-.89.61a4.85,4.85,0,0,1-.42.24l-.21,0a.77.77,0,0,1-.35-.95l0-.09c.14-.21.27-.43.42-.63a2.06,2.06,0,0,1,.61-.57c.21-.13.41-.28.62-.41a3.43,3.43,0,0,1,.48-.21l.4-.13a.93.93,0,0,1,.36-.07c.42,0,.84,0,1.26,0a1.38,1.38,0,0,1,.69.19l.59.3a2.19,2.19,0,0,1,.67.46l.47.48.14.17a9.34,9.34,0,0,1,.53.82,3.07,3.07,0,0,1,.39.93l.08.22a1.05,1.05,0,0,1,.1.46l.07.28a1.34,1.34,0,0,1,.14.64c0,.52,0,1,0,1.57a.93.93,0,0,1-.1.44,1,1,0,0,0-.12.49l-.07.29-.11.34c0,.13-.09.26-.14.38a.63.63,0,0,0-.07.31,1,1,0,0,1-.13.51c-.06.13-.12.25-.19.38a6.41,6.41,0,0,1-.53.92,2.06,2.06,0,0,0-.23.41,2,2,0,0,1-.4.59l-.61.61L60,85a1.68,1.68,0,0,1-.47.48,2.26,2.26,0,0,0-.36.33,2.23,2.23,0,0,1-.52.4,2.76,2.76,0,0,0-.29.22c-.13.1-.25.21-.38.3l-.6.4a1.88,1.88,0,0,1-.56.23,1.52,1.52,0,0,0-.3.14l-.15.11a.61.61,0,0,1-.37.13l-.29.05-.89.31a1,1,0,0,1-.76,0,1.33,1.33,0,0,0-.7-.14,1.09,1.09,0,0,1-.42-.11l-.3-.1-.27-.13c-.14-.09-.28-.19-.42-.28a.88.88,0,0,1-.32-.32c-.13-.21-.28-.41-.4-.63a3.5,3.5,0,0,1-.43-1l-.1-.29a1.38,1.38,0,0,1-.06-.33c0-.4,0-.79,0-1.19a1.25,1.25,0,0,1,.09-.46c.11-.3.2-.6.29-.9l.09-.26c0-.12.07-.24.11-.35l.13-.27c.07-.12.16-.22.23-.34a2.15,2.15,0,0,1,.38-.5l.19-.26a2.15,2.15,0,0,1,.47-.61,1.86,1.86,0,0,0,.4-.52,1.8,1.8,0,0,1,.64-.66,2.79,2.79,0,0,0,.67-.54,1.73,1.73,0,0,1,.5-.37l.9-.45A1,1,0,0,1,56.2,77l.29-.07a1.3,1.3,0,0,1,.65-.13h.07a1.73,1.73,0,0,1,.92.16l.19,0a.73.73,0,0,1,.59.25,3.16,3.16,0,0,1,.69.85l.19.26a.59.59,0,0,1,.14.41.67.67,0,0,0,.07.34,1.33,1.33,0,0,1,0,1.12l-.06.16a1.16,1.16,0,0,1-.29.6l-.16.24-.28.38c-.11.16-.23.31-.33.47a.8.8,0,0,1-.25.25l-1,.69c-.15.1-.32.18-.48.28L57,83.4l-.47.18-.33.12-.75.25-.16,0h-.47a.56.56,0,0,1-.55-.39.63.63,0,0,1,.25-.73l.73-.38c.16-.09.31-.19.46-.28l.49-.3.53-.26a2,2,0,0,0,.5-.37,4.88,4.88,0,0,1,.72-.66,1,1,0,0,0,.37-.47c.06-.16.15-.3.22-.46a.6.6,0,0,0-.27-.81L58,78.73a1.14,1.14,0,0,0-.63-.13h-.24a1.65,1.65,0,0,0-.88.15l-.23,0a.6.6,0,0,0-.5.19,2.86,2.86,0,0,1-.65.49l-.21.17-1,1-.21.26-.38.45-.15.22a3.17,3.17,0,0,1-.34.56,1.32,1.32,0,0,0-.15.3c-.06.15-.1.3-.15.45l-.05.14a.91.91,0,0,1-.25.51.7.7,0,0,0-.17.49c0,.51,0,1,0,1.53A.63.63,0,0,0,52,86a5.38,5.38,0,0,0,.42.42l.27.13.43.15a.43.43,0,0,0,.39,0,1.24,1.24,0,0,1,.72-.13h.09a1.39,1.39,0,0,0,.74-.13l.27-.08a1.67,1.67,0,0,0,.34-.19,1,1,0,0,1,.45-.22l.29-.13.46-.31.82-.56.31-.21c.12-.08.23-.17.34-.27s.24-.23.35-.34l.18-.22a1.31,1.31,0,0,1,.4-.41l.13-.11.54-.65.08-.13c.11-.18.21-.38.33-.55a1,1,0,0,0,.18-.38,2,2,0,0,1,.21-.53c.13-.25.24-.51.36-.77l0-.15a.89.89,0,0,1,.1-.46,1,1,0,0,0,.1-.48c0-.4,0-.79,0-1.19"/><path class="text-color" d="M10.26,84.18V83.9a.64.64,0,0,1,.21-.53l.44-.45.31-.31a2.22,2.22,0,0,0,.46-.6l.17-.23a.41.41,0,0,0,.06-.49c-.09-.18-.18-.36-.27-.55l-.33-.67a.79.79,0,0,1-.08-.4v-.24a1.73,1.73,0,0,1,.15-.86,4.91,4.91,0,0,0,.16-.5l.08-.15a3.7,3.7,0,0,1,.55-.55l.06,0,.54-.18h.15l.65.22a1.47,1.47,0,0,1,.86.75l.34.74v.26l-.06.14a1.17,1.17,0,0,0-.11.68.37.37,0,0,0,.35.34,4,4,0,0,0,.51,0,1.2,1.2,0,0,0,.32-.1,1.54,1.54,0,0,0,.9-.91,1.85,1.85,0,0,0,.1-.44,1.88,1.88,0,0,1,.17-.49c.1-.24.22-.47.34-.7a5.11,5.11,0,0,1,.48-.86,1.86,1.86,0,0,0,.29-.51,1.44,1.44,0,0,1,.34-.52,2.45,2.45,0,0,0,.4-.52,2,2,0,0,1,.23-.31c.21-.23.43-.45.65-.66A3.16,3.16,0,0,1,20,74l.95-.64c.25-.17.49-.34.74-.5l.29-.08h.93a.5.5,0,0,1,.36.13l.6.59a.67.67,0,0,1,.16.31,3.47,3.47,0,0,0,.13.4.33.33,0,0,1,0,.31,1,1,0,0,0-.12.59,1,1,0,0,1-.17.6,2.48,2.48,0,0,0-.25.63,1.71,1.71,0,0,1-.47.81,1.58,1.58,0,0,0-.39.59,1,1,0,0,1-.39.46,1.16,1.16,0,0,0-.27.28c-.11.15-.24.28-.36.42l-.09.1a1,1,0,0,1-.42.38c-.14.09-.26.2-.39.3l-.28.22c-.19.13-.38.28-.59.39s-.7.36-1,.54l-.7.36a1.18,1.18,0,0,0-.53,1.33A.93.93,0,0,0,18,83l.24.21h.31a1.47,1.47,0,0,1,.54-.12.69.69,0,0,0,.3-.13l.48-.32a1.29,1.29,0,0,0,.39-.37c.17-.25.34-.51.5-.77a1.2,1.2,0,0,0,.21-.66.87.87,0,0,1,.17-.49.45.45,0,0,1,.47-.24h0a.73.73,0,0,1,.81.52,1.62,1.62,0,0,1,.12.78v.07l-.22.68-.19.58a1,1,0,0,1-.25.36l-.22.26a1.6,1.6,0,0,1-.43.43l-.16.15a2.55,2.55,0,0,1-.79.7,2.18,2.18,0,0,1-.4.2l-.26.05a1,1,0,0,0-.39.09l-.19.08h-.28l-.62-.21a2.12,2.12,0,0,1-.59-.32,3.52,3.52,0,0,1-.35-.27,3,3,0,0,1-.72-1.07l0-.28a1,1,0,0,0-.29-.67L16,82.14a.49.49,0,0,0-.57-.13,1.49,1.49,0,0,1-.66.1H14.4a.6.6,0,0,0-.43.16,2.18,2.18,0,0,0-.66.88l-.1.16c-.17.19-.34.39-.5.6a6.39,6.39,0,0,1-.54.58l-.3.3a1.93,1.93,0,0,1-.85.5.54.54,0,0,1-.63-.3,1,1,0,0,1-.12-.51Zm8.49-5.73a.29.29,0,0,0,.15.26l.26,0,.6-.41a2.41,2.41,0,0,0,.32-.25l1.26-1.26a2.24,2.24,0,0,0,.37-.48l.17-.25a3.23,3.23,0,0,0,.53-1.18.23.23,0,0,0-.29-.29,1.83,1.83,0,0,0-.78.46l-.94.95a2.62,2.62,0,0,0-.52.68l-.2.25a1.49,1.49,0,0,0-.37.52,3.21,3.21,0,0,1-.41.69.5.5,0,0,0-.12.33m-6,.45a.41.41,0,0,0-.37.26c-.13.33-.13.33,0,.64l0,0a.2.2,0,0,0,.34,0L13,79.7A.58.58,0,0,0,13,79l-.2-.1"/><path class="text-color" d="M.92,91.43a3,3,0,0,1-.46,0,.42.42,0,0,1-.4-.35c0-.12,0-.23-.06-.35v-.12c0-.24.08-.48.14-.71a4.07,4.07,0,0,1,.19-.56,1.71,1.71,0,0,0,.14-.55l0-.15,0-.17a1.42,1.42,0,0,1,.24-.73l.06-.22a1.65,1.65,0,0,1,.25-.77,2.07,2.07,0,0,0,.26-.62l0-.23a3.92,3.92,0,0,1,.09-.39c.06-.19.14-.37.2-.56a3,3,0,0,1,.27-.62A.8.8,0,0,0,2,84a1.74,1.74,0,0,1,.25-.76,2.11,2.11,0,0,0,.25-.58,3.92,3.92,0,0,1,.13-.38c.12-.33.23-.67.36-1L3.16,81l.08-.23c0-.13,0-.26.07-.39s0-.35.09-.52a4.24,4.24,0,0,1,.19-.56,1.58,1.58,0,0,0,.13-.52.63.63,0,0,1,.1-.31,1.91,1.91,0,0,0,.31-.91,2,2,0,0,1,.11-.4,3.86,3.86,0,0,0,.26-.94L4.57,76a1,1,0,0,0,.18-.52l.06-.27,0-.23a.83.83,0,0,1,.5-.71.72.72,0,0,1,.34-.07,1.57,1.57,0,0,1,.67.16,1.09,1.09,0,0,1,.46.5V75c0,.15-.05.29-.07.44a1.74,1.74,0,0,1-.2.59,3.34,3.34,0,0,0-.29.66c-.1.32-.23.64-.34,1s-.11.35-.17.53l-.07.19-.12.46c0,.17-.08.33-.12.49s-.1.27-.14.41a4.19,4.19,0,0,0-.25.91.78.78,0,0,1-.14.33.75.75,0,0,0-.12.37l0,.26c-.07.21-.15.42-.22.63l-.15.44c-.1.32-.2.63-.31.95a4,4,0,0,1-.37.9l-.08.28a1.75,1.75,0,0,1-.25.76,2,2,0,0,0-.29.88L3,86.72a2.38,2.38,0,0,0-.26.62h0a2.14,2.14,0,0,1-.31.89,1.46,1.46,0,0,0-.11.43.81.81,0,0,1-.13.41.77.77,0,0,0-.15.44l0,.26,0,.26a.72.72,0,0,1-.13.38.78.78,0,0,0-.15.44.54.54,0,0,1-.48.51l-.23,0v0"/><path class="text-color" d="M46.76,75.42l-.05.17c-.12.36-.24.73-.36,1.09a1.11,1.11,0,0,1-.22.38.88.88,0,0,0-.16.35,2.27,2.27,0,0,1-.13.38c-.09.19-.19.37-.28.56a4.05,4.05,0,0,0-.19.51,2.11,2.11,0,0,1-.36.71,1.18,1.18,0,0,0-.24.5,1,1,0,0,1-.32.58,1,1,0,0,0-.29.47,1.92,1.92,0,0,1-.5.83,2.79,2.79,0,0,0-.29.41l-.5.76,0,0a2.53,2.53,0,0,0-.51.67l-.17.16a3.49,3.49,0,0,0-.88.73l-.2.21a1.81,1.81,0,0,1-.62.43c-.1,0-.2.11-.3.15l-.43.15-.43.16a.43.43,0,0,1-.33,0,2.15,2.15,0,0,1-1-.75.46.46,0,0,1,.23-.76l.83-.27.23-.13.33-.23c.27-.18.55-.34.8-.54a3.67,3.67,0,0,0,.76-.79c.1-.15.23-.28.35-.41l.2-.25.15-.18a1.94,1.94,0,0,0,.46-.68,2.4,2.4,0,0,1,.25-.42,3,3,0,0,0,.34-.58,1.71,1.71,0,0,1,.22-.36,2.3,2.3,0,0,0,.48-1,.75.75,0,0,1,.21-.35.85.85,0,0,0,.17-.35c0-.11.07-.22.1-.32s.08-.22.1-.34a.68.68,0,0,1,.15-.3.9.9,0,0,0,.25-.51l.07-.19c0-.14.09-.28.13-.42l.12-.24a1.23,1.23,0,0,0,.28-.57.46.46,0,0,1,.35-.38.66.66,0,0,1,.57.05,1.83,1.83,0,0,1,.56.56l.1.24"/><path class="text-color" d="M45.46,84.69h-.24a.72.72,0,0,1-.59-.23,4.22,4.22,0,0,1-.32-.35.65.65,0,0,1-.12-.56.45.45,0,0,1,.25-.3,1,1,0,0,1,.59-.16,1.07,1.07,0,0,0,.62-.14c.19-.1.38-.19.56-.3s.49-.3.72-.47a3.81,3.81,0,0,0,.37-.35,3.38,3.38,0,0,1,.56-.49,1,1,0,0,0,.28-.29,2.32,2.32,0,0,1,.38-.45A2.35,2.35,0,0,0,49,80l.18-.24a2.66,2.66,0,0,0,.42-.57c.17-.27.35-.53.53-.79a2.24,2.24,0,0,0,.4-.83.81.81,0,0,1,.15-.3,2.31,2.31,0,0,0,.47-1l0-.08a1.25,1.25,0,0,0,.14-.71.55.55,0,0,1,.31-.56l.24-.13a.27.27,0,0,1,.32,0l.6.62a.5.5,0,0,1,.12.36,3.41,3.41,0,0,0,0,.36,1.14,1.14,0,0,1-.18.68,2.11,2.11,0,0,0-.21.55,1.75,1.75,0,0,1-.32.67,1.46,1.46,0,0,0-.28.55,1.81,1.81,0,0,1-.52.88,2.24,2.24,0,0,0-.28.38l-.58.88-.11.15a3.7,3.7,0,0,1-.78.95l-.18.2c-.14.17-.26.34-.41.49a2.72,2.72,0,0,1-.49.41,1.68,1.68,0,0,0-.31.29,2.44,2.44,0,0,1-.49.39,2.17,2.17,0,0,0-.36.28,1.1,1.1,0,0,1-.56.32,1,1,0,0,0-.37.15,1.42,1.42,0,0,1-1,.24"/><path class="text-color" d="M41.42,77.19c0,.29,0,.59,0,.89a.71.71,0,0,0,.08.36,1.14,1.14,0,0,1,.13.64c0,.1,0,.2,0,.31a.51.51,0,0,1-.24.44l-.31.18a.35.35,0,0,1-.35,0,.63.63,0,0,1-.3-.39,1.83,1.83,0,0,0-.28-.61.54.54,0,0,0-.34-.23h-.15a2.62,2.62,0,0,0-.32.21l-.23.23a2.2,2.2,0,0,1-.5.38,3.49,3.49,0,0,0-.32.24c-.12.09-.23.19-.36.28a7,7,0,0,1-.59.39c-.26.15-.54.28-.81.4a6.45,6.45,0,0,1-.62.21l-.15,0a1.37,1.37,0,0,0-.72.14l-.28.06a1.16,1.16,0,0,1-.64-.19l-.18-.1a1,1,0,0,1-.59-.71,4.76,4.76,0,0,0-.15-.47.31.31,0,0,1,.07-.36.66.66,0,0,1,.67-.16l.21.07a1.05,1.05,0,0,0,.51.1,1.24,1.24,0,0,0,.42-.09l1-.32.24-.09c.23-.11.45-.22.68-.35l.27-.21L39,76.69a1.26,1.26,0,0,0,.21-.28,2.46,2.46,0,0,1,.5-.64l.2-.2.26-.19a.34.34,0,0,1,.37,0c.16.09.34.16.49.26a1.44,1.44,0,0,1,.28.26.53.53,0,0,1,.13.38c0,.31,0,.61,0,.92"/><path class="text-color" d="M6.44,86.61l-.21-.11a4.06,4.06,0,0,1-.38-.39.47.47,0,0,1-.08-.54c.06-.14.1-.3.15-.45L6,84.91l.13-.39.06-.19c0-.14.09-.28.14-.42a2.8,2.8,0,0,1,.16-.39A1.76,1.76,0,0,0,6.71,83l0-.1c.06-.19.12-.38.18-.56s.12-.28.18-.42a5.2,5.2,0,0,0,.4-.95,2.6,2.6,0,0,1,.19-.45L7.88,80c.07-.18.14-.37.22-.55s.22-.45.32-.67.06-.24.11-.36.22-.48.34-.72.23-.46.34-.7.05-.23.1-.34.22-.49.34-.74l.13-.28a.74.74,0,0,1,.23-.29l.09,0a1,1,0,0,1,.69.06l.21.21c.12.16.22.34.34.5a.31.31,0,0,1,0,.35l-.14.27c-.07.16-.13.32-.19.49s-.07.25-.13.37-.18.36-.27.55l-.31.64-.25.5L9.73,80l-.06.18a.85.85,0,0,1-.22.45.76.76,0,0,0-.19.41l-.07.21c0,.15-.09.29-.14.43l-.13.25a1.24,1.24,0,0,0-.26.52,2.55,2.55,0,0,1-.17.42l-.21.52c-.07.17-.14.35-.21.51a1.34,1.34,0,0,0-.18.63,1,1,0,0,1-.17.51c-.1.21-.22.41-.31.62a1.62,1.62,0,0,1-.76.85l-.22.08"/><path class="text-color" d="M27.42,80.11c0-.18,0-.35,0-.53a.53.53,0,0,0-.26-.5l-.34-.24a.6.6,0,0,0-.62-.09l-.22.09a.76.76,0,0,1-1-.28,3.33,3.33,0,0,1-.2-.31.49.49,0,0,1,0-.49,1.65,1.65,0,0,1,1.05-.84l.15,0c.15,0,.29,0,.44,0a1.52,1.52,0,0,1,1,.34c.14.09.27.2.42.28a1.39,1.39,0,0,1,.58.64c.11.23.21.46.32.69l0,.2a.85.85,0,0,0,.09.43A1,1,0,0,1,29,80c0,.31,0,.61,0,.92l-.06.3c-.07.23-.14.45-.23.67s-.18.39-.27.58l-.32.64a2.16,2.16,0,0,1-.41.62,2.8,2.8,0,0,1-.68.57,1.23,1.23,0,0,1-.65.2.56.56,0,0,1-.54-.66,1.52,1.52,0,0,1,.46-.92,2.16,2.16,0,0,0,.43-.64c.09-.2.2-.39.29-.59s.25-.5.36-.75l0-.21c0-.2,0-.41,0-.61"/><path class="text-color" d="M24.47,83.51a.54.54,0,0,1-.58-.43,1.39,1.39,0,0,1,.16-1c.11-.17.24-.33.34-.5s.2-.38.3-.57a2.16,2.16,0,0,1,.47-.55.27.27,0,0,1,.33-.06,1.84,1.84,0,0,1,.72.46,1.75,1.75,0,0,1,.19.37l0,.18c0,.15-.1.3-.14.45a1,1,0,0,1-.25.4c-.1.11-.19.23-.27.34a1.38,1.38,0,0,1-.36.35,3.1,3.1,0,0,0-.29.23,2.3,2.3,0,0,1-.31.23l-.29.08"/><path class="text-color" d="M11.56,74.73h-.29a.46.46,0,0,1-.44-.23c-.1-.13-.19-.25-.27-.39a.71.71,0,0,1-.06-.65,3.94,3.94,0,0,1,.22-.46.52.52,0,0,1,.34-.26l.3-.1a.48.48,0,0,1,.35,0l.3.1a.86.86,0,0,1,.61.8,2.29,2.29,0,0,0,0,.37.67.67,0,0,1-.18.5.74.74,0,0,1-.64.31h-.25"/><path class="text-color" d="M47.53,76.29a1.28,1.28,0,0,1,.28-.9.58.58,0,0,1,.67-.24.47.47,0,0,1,.29.27c.11.2.19.41.29.61a.43.43,0,0,1,0,.41,5.32,5.32,0,0,1-.32.57.7.7,0,0,1-.57.32.54.54,0,0,1-.53-.36,1.57,1.57,0,0,1-.1-.32,2.43,2.43,0,0,1,0-.36"/></g></g></svg>